<svg width="52" height="51" viewBox="0 0 52 51" fill="none" xmlns="http://www.w3.org/2000/svg">
<circle cx="26" cy="26" r="25" fill="url(#paint0_radial)"/>
<circle cx="26" cy="26" r="25" fill="white"/>
<path fill-rule="evenodd" clip-rule="evenodd" d="M26 0C11.635 0 0 11.4705 0 25.6323C0 36.9747 7.4425 46.5547 17.7775 49.951C19.0775 50.1753 19.565 49.4063 19.565 48.7335C19.565 48.1247 19.5325 46.1062 19.5325 43.9595C13 45.145 11.31 42.3895 10.79 40.9477C10.4975 40.2107 9.23 37.9359 8.125 37.3271C7.215 36.8465 5.915 35.661 8.0925 35.629C10.14 35.5969 11.6025 37.4873 12.09 38.2563C14.43 42.1332 18.1675 41.0438 19.6625 40.3709C19.89 38.7048 20.5725 37.5834 21.32 36.9426C15.535 36.3018 9.49 34.091 9.49 24.2866C9.49 21.4991 10.4975 19.1922 12.155 17.398C11.895 16.7571 10.985 14.1298 12.415 10.6054C12.415 10.6054 14.5925 9.93253 19.565 13.2327C21.645 12.656 23.855 12.3676 26.065 12.3676C28.275 12.3676 30.485 12.656 32.565 13.2327C37.5375 9.90049 39.715 10.6054 39.715 10.6054C41.145 14.1298 40.235 16.7571 39.975 17.398C41.6325 19.1922 42.64 21.4671 42.64 24.2866C42.64 34.1231 36.5625 36.3018 30.7775 36.9426C31.72 37.7436 32.5325 39.2816 32.5325 41.6846C32.5325 45.1129 32.5 47.8684 32.5 48.7335C32.5 49.4063 32.9875 50.2074 34.2875 49.951C39.449 48.2332 43.9341 44.9629 47.1115 40.6004C50.2889 36.2379 51.9986 31.003 52 25.6323C52 11.4705 40.365 0 26 0Z" fill="url(#paint1_radial)"/>
<path d="M18.5354 45.1233C15.7631 45.4639 13.8064 45.0789 12.4228 44.314C10.8481 43.4435 10.1692 42.1661 9.85548 41.304C9.73665 41.0102 9.38763 40.3299 8.93028 39.6442C8.70184 39.3018 8.45982 38.9785 8.22248 38.7142C7.97971 38.4439 7.78281 38.2818 7.64812 38.2061C7.36715 38.0569 7.06089 37.857 6.79093 37.6328C6.54095 37.4252 6.22149 37.1152 6.04317 36.7293C5.94876 36.525 5.85968 36.2249 5.92143 35.8783C5.98801 35.5044 6.20421 35.2187 6.46457 35.0302C6.90452 34.7117 7.50978 34.6374 8.07779 34.6291M18.5354 45.1233L51 25.6323C50.9986 30.7903 49.3567 35.8193 46.3032 40.0117C43.263 44.1858 38.9753 47.3218 34.0375 48.9802C33.853 49.0108 33.7363 49.0003 33.6717 48.9863C33.6055 48.9719 33.5796 48.9512 33.5699 48.9427C33.5446 48.9202 33.5 48.8505 33.5 48.7335C33.5 48.448 33.5036 47.954 33.5084 47.2916C33.5108 46.9605 33.5135 46.5872 33.5162 46.1769C33.5244 44.9502 33.5325 43.4018 33.5325 41.6846C33.5325 40.0482 33.1859 38.7152 32.631 37.6931C35.0561 37.2754 37.524 36.4803 39.5154 34.8336C42.0394 32.7465 43.64 29.4285 43.64 24.2866C43.64 21.4377 42.6917 19.0744 41.1113 17.1772C41.4848 15.948 41.9314 13.4081 40.6416 10.2294L40.4664 9.79753L40.023 9.65399L39.715 10.6054C40.023 9.65399 40.022 9.65368 40.021 9.65337L40.0191 9.65273L40.0149 9.65142L40.006 9.64866L39.9857 9.64263C39.9711 9.6384 39.9541 9.63378 39.935 9.62892C39.8966 9.61921 39.8494 9.60856 39.793 9.59817C39.6802 9.57738 39.5317 9.55774 39.3467 9.54854C38.9761 9.53011 38.464 9.55378 37.8028 9.69005C36.5483 9.94862 34.7651 10.6107 32.3892 12.1509C30.349 11.6278 28.205 11.3676 26.065 11.3676C23.9242 11.3676 21.7792 11.628 19.7383 12.1515C17.3629 10.6257 15.5817 9.96492 14.3304 9.70273C13.6711 9.56459 13.1609 9.53758 12.7921 9.55265C12.608 9.56017 12.4603 9.57813 12.3482 9.59749C12.2922 9.60715 12.2452 9.61714 12.2071 9.62629C12.1881 9.63086 12.1713 9.63522 12.1567 9.63921L12.1366 9.64491L12.1278 9.64752L12.1237 9.64876L12.1217 9.64937C12.1207 9.64966 12.1198 9.64996 12.415 10.6054L12.1198 9.64996L11.6667 9.78996L11.4884 10.2294C10.1985 13.4085 10.6453 15.9486 11.0188 17.1776C9.43744 19.0798 8.49 21.4687 8.49 24.2866C8.49 29.4118 10.0819 32.7286 12.5962 34.8198C14.5821 36.4715 17.0455 37.273 19.4714 37.693C19.1679 38.2525 18.9255 38.9065 18.7711 39.6538C18.1044 39.8955 17.2083 40.1077 16.2834 40.0238C15.1756 39.9234 13.946 39.3961 12.9461 37.7395L12.9405 37.7301L12.9346 37.7208C12.6557 37.281 12.1029 36.5247 11.3137 35.8718C10.5263 35.2202 9.42423 34.6083 8.07779 34.6291M18.5354 45.1233C18.5385 45.7772 18.5436 46.3941 18.5488 46.9328C18.5513 47.1968 18.5538 47.4409 18.5561 47.6609C18.5612 48.1546 18.565 48.5274 18.565 48.7335C18.565 48.8457 18.5236 48.9057 18.501 48.9254C18.4998 48.9265 18.3951 49.029 18.0138 48.9759C8.10827 45.686 1 36.4938 1 25.6323C1 12.0361 12.1738 1 26 1C39.8261 1 50.9999 12.036 51 25.6321L18.5354 45.1233ZM8.07779 34.6291L8.0925 35.629M8.07779 34.6291C8.07748 34.6291 8.07716 34.6291 8.07685 34.6291L8.0925 35.629M8.0925 35.629C10.14 35.5969 11.6025 37.4873 12.09 38.2563L10.79 40.9477C10.4975 40.2107 9.23 37.9359 8.125 37.3271C7.215 36.8465 5.915 35.661 8.0925 35.629Z" stroke="black" stroke-opacity="0.1" stroke-width="2"/>
<defs>
<radialGradient id="paint0_radial" cx="0" cy="0" r="1" gradientUnits="userSpaceOnUse" gradientTransform="translate(43.9687 12.7187) rotate(136.332) scale(47.5216)">
<stop stop-color="#2E9BFF"/>
<stop offset="1" stop-color="#364ECE"/>
</radialGradient>
<radialGradient id="paint1_radial" cx="0" cy="0" r="1" gradientUnits="userSpaceOnUse" gradientTransform="translate(41 12) rotate(136.292) scale(47.0346 48.9159)">
<stop stop-color="#242DFF"/>
<stop offset="1" stop-color="#0038FF"/>
</radialGradient>
</defs>
</svg>
